<?xml version="1.0" encoding="UTF-8"?>
<svg width="1200pt" height="1200pt" version="1.1" viewBox="0 0 1200 1200" xmlns="http://www.w3.org/2000/svg">
 <path d="m619.01 301.95c-20.641 27.887-32.004 62.352-32.004 97.043v17.891c0 37.129 12.84 73.488 36.145 102.39l8.8789 11.016c31.129 38.605 77.41 60.742 127 60.742h149.38c1.1875-21.949-1.5117-44.074-8.3984-65.281l-17.508-53.891c-11.879-36.574-11.734-76.008 0.43359-112.5l12.926-38.785c9.3242-27.996 7.8242-58.094-3.457-84.719l-142.24 0.003906c-51.504-0.011719-100.52 24.707-131.15 66.086z"/>
 <path d="m901.56 992.15-130.96-104.11v-91.094c0-13.262 10.738-24 24-24h20.074c19.812 0 37.586-12.168 44.746-30.637l37.188-95.832c2.4727-6.3711 4.4297-12.875 6.1562-19.441l-143.73 0.003906c-60.527 0-117.04-27.023-155.03-74.148l-8.8789-11.016c-28.453-35.27-44.113-79.668-44.113-124.99v-17.891c0-42.348 13.871-84.422 39.059-118.45 37.367-50.52 97.211-80.688 160.08-80.688h120.2l-45.91-64.379c-33.789-47.352-88.379-75.469-146.55-75.469h-100.02c-77.508 0-150.18 37.68-194.83 101.03-42.793 60.707-65.773 133.16-65.773 207.43v47.125c0 97.234 33.73 191.46 95.461 266.59l9.8516 12c25.223 30.707 33.613 71.902 22.391 110.03l-27.109 92.16-109.25 49.234c-33.551 15.121-38.316 60.828-8.5781 82.535l74.195 54.168c51.344 37.488 113.29 57.695 176.88 57.695h204.2c48.539 0 95.016-19.598 128.89-54.359l21.852-22.43c19.848-20.34 17.762-53.387-4.4883-71.062z"/>
</svg>
