<?xml version="1.0" encoding="UTF-8"?>
<svg width="1200pt" height="1200pt" version="1.1" viewBox="0 0 1200 1200" xmlns="http://www.w3.org/2000/svg">
 <path d="m720 645c0 66.273-53.727 120-120 120s-120-53.727-120-120 53.727-120 120-120 120 53.727 120 120z"/>
 <path d="m210 561.84c0-59.777 0-89.664 14.488-112.01 4.7031-7.2539 10.426-13.789 16.992-19.41 20.23-17.312 49.859-21.262 109.11-29.16l84.41-11.258 43.273-69.238c13.754-22.004 20.629-33.004 30.742-40.031 3.3281-2.3125 6.8789-4.2812 10.605-5.8789 11.32-4.8516 24.289-4.8516 50.238-4.8516h60.281c25.949 0 38.918 0 50.238 4.8516 3.7266 1.5977 7.2773 3.5664 10.605 5.8789 10.113 7.0273 16.988 18.027 30.742 40.031l43.273 69.238 84.41 11.258c59.25 7.8984 88.879 11.848 109.11 29.16 6.5664 5.6211 12.289 12.156 16.992 19.41 14.488 22.344 14.488 52.23 14.488 112.01v206.16c0 67.496 0 101.24-17.188 124.9-5.5508 7.6406-12.273 14.359-19.91 19.91-23.66 17.188-57.41 17.188-124.9 17.188h-456c-67.492 0-101.24 0-124.9-17.188-7.6406-5.5508-14.359-12.27-19.91-19.91-17.188-23.66-17.188-57.406-17.188-124.9zm720-44.336c0 20.711-16.789 37.5-37.5 37.5s-37.5-16.789-37.5-37.5 16.789-37.5 37.5-37.5 37.5 16.789 37.5 37.5zm-120 127.5c0 115.98-94.02 210-210 210s-210-94.02-210-210 94.02-210 210-210 210 94.02 210 210z" fill-rule="evenodd"/>
 <path d="m1110 557.65c0.003906-26.215 0.015625-54.094-2.4336-78.055-2.8125-27.531-9.7227-61.684-31.371-95.066-10.973-16.926-24.332-32.176-39.656-45.293-30.23-25.871-63.168-37.238-90.086-43.66-23.43-5.5938-51.066-9.2695-77.051-12.727l-32.57-4.3438-13.348-21.355c-0.76562-1.2188-1.6367-2.6523-2.6211-4.2695-9.543-15.684-29.559-48.574-61.398-70.703-9.9844-6.9375-20.645-12.848-31.82-17.633-35.641-15.277-74.137-14.816-92.496-14.598-1.8906 0.023438-3.5703 0.042969-5.0078 0.042969h-60.281c-1.4414 0-3.1211-0.019531-5.0117-0.042969-18.359-0.21875-56.855-0.67969-92.5 14.598-11.172 4.7852-21.832 10.695-31.816 17.633-31.844 22.129-51.855 55.02-61.402 70.703-0.98047 1.6172-1.8516 3.0508-2.6133 4.2695l-13.352 21.355-32.57 4.3438c-15.023 2-30.602 4.0703-45.598 6.543v-64.391l45-7.5v-13.5c0-22.5 0-33.746-5.7305-41.633-1.8516-2.5469-4.0898-4.7891-6.6367-6.6367-7.8867-5.7305-19.133-5.7305-41.633-5.7305h-42c-22.5 0-33.746 0-41.633 5.7305-2.5469 1.8477-4.7891 4.0898-6.6367 6.6367-5.7305 7.8867-5.7305 19.133-5.7305 41.633v13.5l45 7.5v78.98c-19.988 7.1836-41.367 17.992-61.539 35.254-15.324 13.117-28.68 28.367-39.656 45.293-21.648 33.383-28.562 67.535-31.371 95.066-2.4453 23.961-2.4414 51.84-2.4336 78.055v214.94c-0.007812 29.707-0.015625 60.789 2.8477 87.219 3.2539 30.039 11.328 67.926 37.262 103.62 12.953 17.832 28.629 33.508 46.457 46.461 35.695 25.934 73.578 34.008 103.62 37.258 26.426 2.8672 57.512 2.8555 87.215 2.8516h465.2c29.707 0.003906 60.789 0.015624 87.219-2.8516 30.039-3.25 67.926-11.324 103.62-37.258 17.832-12.953 33.508-28.629 46.461-46.461 25.934-35.691 34.008-73.578 37.262-103.62 2.8633-26.43 2.8516-57.512 2.8477-87.219zm-60.004 213.28v-211.76c0.003906-27.594 0.007812-52.645-2.1211-73.461-2.3086-22.637-7.5781-46.238-22.023-68.52-7.8398-12.086-17.379-22.98-28.324-32.352-20.172-17.262-42.875-25.602-65.004-30.883-20.355-4.8594-45.188-8.168-72.539-11.812l-59.074-7.8789-28.309-45.297c-0.92969-1.4844-1.8828-3.0234-2.8555-4.5977-10.508-16.984-23.828-38.523-44.523-52.902-6.6562-4.625-13.762-8.5664-21.215-11.758-23.16-9.9258-48.469-9.8086-68.441-9.7188-1.8594 0.007813-3.668 0.015625-5.4297 0.015625h-60.281c-1.7578 0-3.5703-0.007812-5.4258-0.015625-19.977-0.089843-45.285-0.20703-68.445 9.7188-7.4492 3.1914-14.559 7.1328-21.215 11.758-20.695 14.379-34.008 35.902-44.516 52.891l-0.019531 0.027343c-0.96484 1.5664-1.918 3.1055-2.8438 4.582l-28.309 45.297-59.074 7.8789c-27.348 3.6445-52.184 6.9531-72.539 11.812-22.129 5.2812-44.828 13.621-65.004 30.883-10.945 9.3711-20.484 20.266-28.324 32.352-14.445 22.281-19.711 45.883-22.023 68.52-2.125 20.816-2.125 45.867-2.1211 73.461v211.76c-0.003906 31.242-0.003906 59.336 2.4961 82.434 2.7031 24.938 8.8867 51.055 26.152 74.816 9.25 12.73 20.449 23.93 33.184 33.184 23.762 17.266 49.879 23.449 74.816 26.152 23.094 2.5 51.191 2.4961 82.434 2.4961h461.83c31.242 0 59.344 0.003907 82.438-2.4961 24.938-2.7031 51.055-8.8867 74.816-26.152 12.734-9.2539 23.934-20.453 33.184-33.184 17.266-23.762 23.449-49.879 26.152-74.816 2.5039-23.094 2.5-51.195 2.4961-82.434z" fill-rule="evenodd"/>
</svg>
